<?xml version="1.0" standalone="no"?>
<!DOCTYPE svg PUBLIC "-//W3C//DTD SVG 20010904//EN"
 "http://www.w3.org/TR/2001/REC-SVG-20010904/DTD/svg10.dtd">
<svg version="1.0" xmlns="http://www.w3.org/2000/svg"
 width="512.000000pt" height="512.000000pt" viewBox="0 0 512.000000 512.000000"
 preserveAspectRatio="xMidYMid meet">
<metadata>
Created by potrace 1.11, written by Peter Selinger 2001-2013
</metadata>
<g transform="translate(0.000000,512.000000) scale(0.100000,-0.100000)"
fill="#000000" stroke="none">
<path d="M0 2560 l0 -2560 2560 0 2560 0 0 2560 0 2560 -681 0 -681 0 6 -657
c4 -362 12 -691 17 -731 13 -92 42 -156 114 -257 130 -181 366 -564 396 -644
29 -79 58 -194 69 -276 10 -78 -2 -428 -25 -770 -19 -269 -112 -1224 -147
-1498 l-11 -87 -82 0 -83 0 -6 163 c-4 89 -16 412 -26 717 -11 305 -25 633
-30 728 -13 248 -53 383 -113 382 -70 -1 -126 -135 -147 -355 -10 -107 -23
-555 -35 -1195 -3 -173 -8 -343 -11 -377 l-6 -63 -98 0 -99 0 -5 53 c-6 53
-38 790 -56 1279 -19 508 -84 724 -192 638 -81 -64 -97 -239 -118 -1375 -6
-314 -13 -576 -15 -582 -3 -9 -29 -13 -83 -13 l-78 0 -53 442 c-69 577 -66
548 -97 948 -35 452 -37 818 -4 998 41 221 76 296 313 655 140 211 217 339
233 383 l24 65 0 714 0 715 -1655 0 -1655 0 0 -2560z"/>
</g>
</svg>
